<?xml version="1.0" standalone="no"?>
<!DOCTYPE svg PUBLIC "-//W3C//DTD SVG 20010904//EN"
 "http://www.w3.org/TR/2001/REC-SVG-20010904/DTD/svg10.dtd">
<svg version="1.0" xmlns="http://www.w3.org/2000/svg"
 width="1080.000000pt" height="1080.000000pt" viewBox="0 0 1080.000000 1080.000000"
 preserveAspectRatio="xMidYMid meet">

<g transform="translate(0.000000,1080.000000) scale(0.100000,-0.100000)"
fill="#000000" stroke="none">
<path d="M5175 10794 c-452 -28 -761 -74 -1130 -169 -674 -173 -1311 -479
-1871 -898 -584 -436 -1083 -997 -1449 -1626 -107 -184 -270 -522 -348 -721
-499 -1268 -499 -2692 0 -3960 78 -199 241 -537 348 -721 473 -814 1160 -1501
1974 -1974 184 -107 522 -270 721 -348 490 -193 998 -310 1550 -358 187 -17
673 -17 860 0 701 61 1319 229 1926 525 559 273 1018 599 1454 1036 436 435
759 885 1029 1430 306 618 480 1248 542 1960 17 187 17 673 0 860 -61 701
-229 1319 -525 1926 -274 562 -600 1019 -1041 1459 -440 441 -897 767 -1459
1041 -602 293 -1231 466 -1911 524 -128 11 -570 20 -670 14z m4076 -4279 c48
-25 82 -80 87 -140 6 -68 -1 -96 -34 -135 -55 -64 -137 -86 -211 -55 -50 21
-72 42 -94 90 -73 158 97 320 252 240z m-1120 -24 l24 -19 -3 -302 c-2 -286
-2 -302 15 -295 146 60 360 65 516 10 105 -36 173 -81 273 -180 77 -76 98
-104 138 -185 72 -148 76 -175 76 -638 0 -433 -1 -445 -53 -500 -50 -54 -92
-66 -229 -67 -109 0 -130 3 -145 18 -17 17 -18 49 -18 475 l0 457 -23 47 c-32
65 -111 134 -175 153 -112 33 -204 10 -287 -73 -31 -33 -62 -74 -70 -97 -11
-31 -15 -143 -19 -498 -5 -392 -8 -459 -21 -467 -8 -5 -99 -10 -202 -10 -156
0 -189 3 -202 16 -14 14 -16 119 -16 1012 0 949 1 999 19 1037 43 94 107 123
267 124 96 1 115 -2 135 -18z m-6249 -148 c16 -15 18 -35 18 -215 l0 -198 200
0 c212 0 246 -6 256 -46 3 -12 4 -78 2 -146 -3 -115 -5 -128 -30 -165 -17 -26
-45 -50 -79 -67 -50 -25 -61 -26 -201 -26 l-148 0 0 -233 c0 -289 6 -316 89
-398 77 -78 117 -89 320 -89 177 0 213 -10 268 -73 42 -48 53 -91 53 -217 0
-162 23 -150 -293 -150 -294 0 -342 7 -464 66 -190 91 -341 275 -393 480 -19
73 -20 114 -20 770 0 616 2 694 16 708 24 24 379 24 406 -1z m1915 -389 c89
-22 208 -73 269 -114 125 -85 247 -229 308 -362 48 -104 66 -177 73 -305 15
-273 -78 -503 -274 -683 -162 -149 -352 -221 -578 -221 -131 0 -225 18 -340
65 -108 44 -192 104 -288 206 -94 100 -146 185 -188 310 -28 83 -33 112 -37
231 -3 102 0 156 12 217 70 347 355 616 711 672 82 12 250 5 332 -16z m3183
-4 c201 -57 380 -189 499 -371 44 -69 51 -109 23 -137 -9 -9 -88 -37 -174 -61
-188 -53 -204 -51 -298 33 -72 64 -132 95 -218 109 -126 21 -253 -22 -349
-119 -157 -157 -155 -413 6 -571 157 -154 397 -156 562 -5 59 54 93 72 137 72
40 0 315 -80 335 -98 26 -23 20 -63 -20 -130 -113 -185 -302 -325 -519 -383
-111 -30 -315 -30 -428 0 -223 59 -437 228 -544 429 -102 191 -126 447 -61
658 45 148 152 307 277 409 66 55 203 131 276 155 139 45 357 49 496 10z
m-1173 -43 c15 -15 18 -36 18 -145 0 -117 -2 -131 -25 -172 -14 -24 -44 -58
-68 -75 l-44 -30 -191 -5 c-192 -5 -192 -5 -247 -36 -61 -34 -121 -105 -139
-164 -7 -25 -11 -185 -11 -499 l0 -461 -210 0 -210 0 -15 24 c-14 22 -16 78
-13 498 5 527 4 521 77 673 108 223 321 375 569 405 37 4 162 7 279 6 190 -1
214 -3 230 -19z"/>
<path d="M9090 6350 c0 -82 3 -100 15 -100 10 0 15 11 15 35 0 30 3 35 23 35
14 0 30 -12 45 -35 14 -22 30 -35 43 -35 20 0 21 1 5 23 -28 38 -29 47 -7 71
26 28 27 60 1 86 -16 16 -33 20 -80 20 l-60 0 0 -100z m108 61 c8 -4 12 -19
10 -32 -2 -20 -9 -24 -45 -27 -41 -3 -43 -2 -43 26 0 16 3 32 7 35 9 10 55 8
71 -2z"/>
<path d="M3495 5516 c-114 -28 -218 -113 -271 -221 -27 -55 -29 -69 -29 -170
0 -103 2 -114 32 -178 124 -261 468 -311 666 -97 78 84 101 147 102 275 0 94
-2 105 -33 167 -89 181 -277 271 -467 224z"/>
</g>
</svg>
